# xmcd CD database file
#
# Track frame offsets:
#	187
#	11517
#	26747
#	34917
#	53745
#	73222
#	87577
#	98937
#	120880
#	133925
#	149697
#
# Disc length: 2217 seconds
#
# Revision: 1
# Processed by: cddbd v1.4PL0 Copyright (c) Steve Scherf et al.
# Submitted via: CDex 1.50
#
DISCID=9f08a70b
DTITLE=Johnny Hartman - The Voice That Is
DYEAR=1964
DGENRE=Jazz
TTITLE0=The More I See You
TTITLE1=A Slow Hot Wind
TTITLE2=Let Me Love You
TTITLE3=Funny World
TTITLE4=These Foolish Things
TTITLE5=My Ship
TTITLE6=Day the World Stopped Turning
TTITLE7=Joey, Joey, Joey
TTITLE8=Sunrise Sunset
TTITLE9=Waltz For Debbie
TTITLE10=It Never Entered My Mind
EXTD=YEAR: 1964
EXTT0=
EXTT1=
EXTT2=
EXTT3=
EXTT4=
EXTT5=
EXTT6=
EXTT7=
EXTT8=
EXTT9=
EXTT10=
PLAYORDER=
